<?xml version="1.0" standalone="no"?><!DOCTYPE svg PUBLIC "-//W3C//DTD SVG 1.1//EN" "http://www.w3.org/Graphics/SVG/1.1/DTD/svg11.dtd"><svg t="1675418592333" class="icon" viewBox="0 0 1024 1024" version="1.1" xmlns="http://www.w3.org/2000/svg" p-id="871" xmlns:xlink="http://www.w3.org/1999/xlink" width="200" height="200"><path d="M486.54671334 714.09909966l20.87169499 124.21204007c-13.23570887 7.12691998-34.61647 13.74477501-63.1241523 19.85356389-29.01674725 6.61785503-63.12415231 10.18131443-102.32221399 10.18131562-112.50352841-2.03626337-197.00844185-35.63460228-253.51473913-99.77688567C31.44194069 703.91778405 2.93425839 621.95820011 2.93425839 522.69038057c2.5453283-117.59418622 36.65273337-207.69882241 101.81314904-270.82297472C171.94408526 188.23418859 255.43086643 155.65398076 356.22588318 155.65398076c38.1799306 0 71.26920337 3.56346058 98.75875341 9.67224948s47.85218006 12.72664392 61.08788893 20.36263003l-29.52581218 126.75736957-53.96096897-17.3082356c-20.36263004-5.09065781-43.77965334-7.63598612-70.76013842-7.63598612-59.05162558-0.50906614-107.92193673 18.32636669-146.10186734 55.99723114-38.68899673 37.16179951-58.54256064 94.17716172-60.06975785 170.02795796 0 69.23294121 18.83543283 123.19390898 54.97910005 162.9010368 36.14366723 39.19806167 87.05024175 59.56069173 152.21065742 60.06975786l67.70574278-6.10878889c21.88982727-4.07252552 40.21619395-9.67224949 55.99723233-16.29010333M608.21342509 868.34601924l31.05301061-203.62629688H562.90657453l17.3082344-101.81314783h76.35986118l16.29010451-101.81314906h-76.35986118L613.81314785 359.28027764h76.35986118l31.05301061-203.62629688h101.81314784l-31.05300941 203.62629688h50.90657333l31.05301061-203.62629688h101.81314784l-31.05300942 203.62629688H1021.06574161l-17.3082356 101.81314783h-76.35986118l-16.29010332 101.81314906h76.35986119L970.1591671 664.71972236h-76.35986119l-31.05301061 203.62629688h-101.81314785l31.05301062-203.62629688h-50.90657453l-31.05301061 203.62629688h-101.81314784m150.17439405-305.43944471h50.90657333l16.29010452-101.81314906h-50.90657453l-16.29010332 101.81314906z" fill="#ffffff" p-id="872"></path></svg>