<?xml version="1.0" standalone="no"?><!DOCTYPE svg PUBLIC "-//W3C//DTD SVG 1.1//EN" "http://www.w3.org/Graphics/SVG/1.1/DTD/svg11.dtd"><svg t="1677760635266" class="icon" viewBox="0 0 1024 1024" version="1.1" xmlns="http://www.w3.org/2000/svg" p-id="887" xmlns:xlink="http://www.w3.org/1999/xlink" width="200" height="200"><path d="M597.29689788 939.17188142L384.28150662 930.66487698c-203.26069283-8.16672426-362.96552291-181.14248128-354.91222535-384.40317411l4.08336212-101.85719986C41.61936766 241.03038344 214.59512467 81.32555337 417.8558175 89.49227764l213.01539126 8.50700444c203.26069283 8.16672426 362.96552291 181.14248128 354.91222536 384.4031741l-4.08336214 101.85719988c-8.16672426 203.26069283-181.14248128 362.96552291-384.4031741 354.91222536z" fill="#F76C69" p-id="888"></path><path d="M711.1773307 791.1500041l-178.30681313-7.14588372c-235.58730971-9.41441825-420.69972639-209.83944292-411.28530815-445.42675264l0.56713362-15.53946145c1.02084052-26.88213403 4.65049576-53.08370772 10.43525879-78.49129434-52.74342756 68.05603554-85.63717806 152.44551961-89.38026 244.54802107-9.41441825 235.58730971 175.69799844 436.01233438 411.28530816 445.42675264l113.19987243 4.53706903c163.44791204 6.57875011 309.9952419-80.64640212 387.57912243-213.2422447-70.55142352 44.57670328-154.71405414 68.96344937-244.09431415 65.33379411z" fill="#EA5959" p-id="889"></path><path d="M766.75642639 660.25556242c2.83566814-0.11342672 70.0977166-3.06252158 73.38709166-58.30133712 0.68056036-10.8889657 9.98155189-19.16911668 20.87051757-18.48855632 10.8889657 0.68056036 19.16911668 9.98155189 18.48855634 20.87051756-2.26853451 38.33823337-22.91219863 67.03519501-59.66245784 83.14179008-25.74786678 11.34267259-50.92859993 12.13665967-51.94944047 12.13665968h-0.56713363c-10.66211223 0-19.39597012-8.50700444-19.73625031-19.16911669-0.22685345-10.77553896 8.280151-19.84967703 19.16911668-20.18995719z" fill="#333333" p-id="890"></path><path d="M869.70365142 557.30932873a19.62282359 19.62282359 0 1 0 6.23609704-38.74702443 19.62282359 19.62282359 0 1 0-6.23609704 38.74702443Z" fill="#3A3D3D" p-id="891"></path><path d="M657.98019624 273.24357362l47.97950505 37.54424627c19.16911668 14.97232781 10.66211223 45.71097054-13.49778037 48.66006541l-120.45918292 14.74547436c-6.46532338 0.79398707-12.47693982 3.85650868-16.78715543 8.62043117l-79.2852814 86.54459188c-13.04407347 14.17834074-36.29655229 10.77553896-44.69013002-6.5787501L397.43900683 393.36247635c-4.19678886-8.7338579-12.70379331-14.51862092-22.345065-15.31260802l-87.90571259-7.14588372c-26.3150004-2.1551078-34.5951514-36.75025919-12.02323293-50.58831975l75.20191927-46.0512507c8.280151-5.10420267 13.27092693-14.064914 13.04407349-23.81961244l-1.36112074-77.13017363c-0.34028017-19.2825434 18.94226322-32.89375051 36.97711267-26.08814697l109.79707068 41.40075496c6.1250432 2.26853451 12.81722003 2.38196122 18.94226322 0.11342672l114.10728627-41.28732823c22.91219863-8.280151 44.34984982 15.19918127 34.02801777 37.31739283L650.04032542 239.8961162c-5.44448285 11.79637949-2.1551078 25.52101334 7.93987082 33.34745742z" fill="#EA5959" p-id="892"></path><path d="M609.66041101 235.47247388l88.0191393 68.85002263-147.34131694 18.03484942-85.2968979 93.00991525-43.55586276-90.06082037-140.76256685-11.34267261 120.45918293-73.72737184-1.81482762-100.04237225 118.07722168 44.57670329 139.6282996-50.58831976z" fill="#BFE5BD" p-id="893"></path><path d="M988.39224883 355.25109645c-20.53023739-54.21797497-50.92859993-103.44517403-90.51452728-146.32047641s-86.2043117-77.13017361-138.60745908-101.97062661c-54.33140171-25.63444007-112.40588538-39.92620751-172.63547683-42.30816877l-113.19987245-4.53706904c-60.22959146-2.38196122-119.21148893 7.14588372-175.47114499 28.4701082-54.21797497 20.53023739-103.44517403 50.92859993-146.32047641 90.5145273s-77.13017361 86.2043117-101.97062659 138.60745905c-25.63444007 54.33140171-39.92620751 112.40588538-42.30816877 172.63547683-2.26853451 60.34301817 7.25931045 119.32491566 28.58353494 175.5845717 20.53023739 54.21797497 50.92859993 103.44517403 90.51452725 146.32047643s86.2043117 77.13017361 138.60745908 101.97062659c54.33140171 25.63444007 112.40588538 39.92620751 172.63547682 42.30816876l113.19987246 4.53706904c6.01161648 0.22685345 12.13665967 0.34028017 18.14827615 0.34028019 53.99112154 0 106.73454908-9.64127169 157.32286883-28.81038839 54.21797497-20.53023739 103.44517403-50.92859993 146.32047643-90.51452727s77.13017361-86.2043117 101.97062658-138.60745907c25.63444007-54.33140171 39.92620751-112.40588538 42.30816878-172.63547684 2.26853451-60.34301817-7.37273718-119.32491566-28.58353492-175.58457169zM686.45030446 302.28081544L549.43081954 318.95454413 470.25896487 405.49913602l-40.49334116-83.70892373-130.78101498-10.54868549 111.9521785-68.50974246-1.58797419-93.00991525 109.68364397 41.40075496 129.76017443-46.95866452-44.12299635 94.03075577 81.78066937 64.08610014z m290.93955195 226.85345184c-4.31021558 108.66280341-51.04202665 209.49916275-131.57500206 283.79366821s-184.7721365 112.85959228-293.4349399 108.54937669l-113.19987248-4.53706904C213.91456431 907.97953179 37.8762857 717.30920554 46.83699707 492.04372789c4.31021558-108.66280341 51.04202665-209.49916275 131.57500203-283.79366824s184.65870978-112.85959228 293.43493993-108.54937668l113.19987245 4.53706905c15.53946146 0.56713363 30.85206943 2.1551078 45.93782401 4.42364229l-111.72532504 40.37991443-96.07243684-36.29655228c-4.53706903-1.70140089-9.18756479-2.49538796-13.95148729-2.49538799-8.05329754 0-15.99316835 2.49538796-22.68534519 7.14588374-10.66211223 7.48616389-16.90058216 19.84967703-16.67372869 32.89375052l1.24769398 70.43799679-92.66963508 56.71336295c-14.51862092 8.96071135-21.77793137 26.20157368-17.80799595 42.76187568 3.96993541 16.56030199 18.14827614 28.81038838 35.16228502 30.17150907l108.32252324 8.73385791L434.86982639 422.51314491c5.67133629 11.79637949 16.90058216 19.96310377 29.83122891 21.77793138 1.92825434 0.22685345 3.85650868 0.4537069 5.6713363 0.4537069 11.00239241 0 21.55107792-4.53706903 29.03724181-12.81722003l69.41715627-75.76905291 122.50086398-14.97232781c15.87974163-1.92825434 28.9238151-13.1575002 33.2340307-28.58353494 4.31021558-15.31260799-1.13426728-31.75948326-13.72463386-41.62760841L653.78340737 226.28490909l30.73864272-65.67407431c6.46532338-13.83806057 4.31021558-30.17150908-5.33105609-41.85446187 72.02597095 20.1899572 137.47319179 60.11616472 189.76291245 116.71610097 74.18107874 80.87325557 112.74616557 184.99898997 108.43594996 293.6617934z" fill="#333333" p-id="894"></path><path d="M475.36316753 267.68566405a26.76870731 13.1575002 0 1 0 53.53741463 0 26.76870731 13.1575002 0 1 0-53.53741463 0Z" fill="#82BF7C" p-id="895"></path><path d="M484.32387888 256.00271126a24.84045298 11.45609931 0 1 0 49.68090595 0 24.84045298 11.45609931 0 1 0-49.68090595 0Z" fill="#343F3D" p-id="896"></path></svg>